<svg width="16" height="14" viewBox="0 0 16 14" fill="none" xmlns="http://www.w3.org/2000/svg">
<path d="M16 2.03888C15.405 2.29988 14.771 2.47288 14.11 2.55688C14.79 2.15088 15.309 1.51288 15.553 0.743878C14.919 1.12188 14.219 1.38888 13.473 1.53788C12.871 0.896878 12.013 0.499878 11.077 0.499878C9.261 0.499878 7.799 1.97388 7.799 3.78088C7.799 4.04088 7.821 4.29088 7.875 4.52888C5.148 4.39588 2.735 3.08888 1.114 1.09788C0.831 1.58888 0.665 2.15088 0.665 2.75588C0.665 3.89188 1.25 4.89888 2.122 5.48188C1.595 5.47188 1.078 5.31888 0.64 5.07788C0.64 5.08788 0.64 5.10088 0.64 5.11388C0.64 6.70788 1.777 8.03188 3.268 8.33688C3.001 8.40988 2.71 8.44488 2.408 8.44488C2.198 8.44488 1.986 8.43288 1.787 8.38888C2.212 9.68788 3.418 10.6429 4.852 10.6739C3.736 11.5469 2.319 12.0729 0.785 12.0729C0.516 12.0729 0.258 12.0609 0 12.0279C1.453 12.9649 3.175 13.4999 5.032 13.4999C11.068 13.4999 14.368 8.49988 14.368 4.16588C14.368 4.02088 14.363 3.88088 14.356 3.74188C15.007 3.27988 15.554 2.70288 16 2.03888Z" fill="#F4F4FD"/>
</svg>
