<svg width="64" height="50" viewBox="0 0 64 50" fill="none" xmlns="http://www.w3.org/2000/svg">
<path d="M3.19833 49.5819H54.3715C56.1378 49.5819 57.5699 48.1499 57.5699 46.3836V42.1192C57.5699 40.3529 56.1378 38.9209 54.3715 38.9209H53.3054V12.3343L59.3611 6.59768C60.7666 7.29055 62.4678 6.86993 63.3876 5.60029C64.308 4.33116 64.1789 2.58364 63.0826 1.46339C61.9863 0.343142 60.2424 0.176042 58.953 1.06776C57.6641 1.96 57.206 3.65131 57.8681 5.07192L53.3054 9.39726V6.93761C53.3054 5.17134 51.8734 3.73928 50.1071 3.73928H7.46276C5.6965 3.73928 4.26443 5.17134 4.26443 6.93761V38.9209H3.19833C1.43206 38.9209 0 40.3529 0 42.1192V46.3836C0 48.1499 1.43206 49.5819 3.19833 49.5819ZM60.7682 2.67317C61.3569 2.67317 61.8343 3.15053 61.8343 3.73928C61.8343 4.32803 61.3569 4.80539 60.7682 4.80539C60.1794 4.80539 59.7021 4.32803 59.7021 3.73928C59.7021 3.15053 60.1794 2.67317 60.7682 2.67317ZM6.39665 6.93761C6.39665 6.34885 6.874 5.8715 7.46276 5.8715H50.1071C50.6958 5.8715 51.1732 6.34885 51.1732 6.93761V11.4149L49.041 13.441V9.06982C49.041 8.48107 48.5636 8.00371 47.9749 8.00371H9.59498C9.00622 8.00371 8.52887 8.48107 8.52887 9.06982V35.7225C8.52887 36.3113 9.00622 36.7886 9.59498 36.7886H47.9749C48.5636 36.7886 49.041 36.3113 49.041 35.7225V16.3738L51.1732 14.3535V38.9209H6.39665V6.93761ZM15.9916 20.797C14.5492 20.7929 13.2826 21.7538 12.899 23.1442C12.5153 24.5346 13.1093 26.0094 14.3498 26.7455C15.5898 27.4815 17.1697 27.2967 18.2061 26.2936L21.912 28.1531C22.3425 28.3686 22.8646 28.2676 23.1847 27.9079L31.0624 19.0453L38.8062 24.848C39.2216 25.1593 39.8016 25.126 40.1784 24.7694L46.9088 18.3941V34.6564H10.6611V10.1359H46.9088V15.4566L39.3658 22.5997L31.5569 16.7455C31.1134 16.4134 30.4892 16.4758 30.1207 16.8897L22.1348 25.8751L19.1493 24.3821C19.1712 24.2541 19.1847 24.125 19.19 23.9953C19.19 22.2291 17.7579 20.797 15.9916 20.797ZM17.0577 23.9953C17.0577 24.5841 16.5804 25.0615 15.9916 25.0615C15.4029 25.0615 14.9255 24.5841 14.9255 23.9953C14.9255 23.4066 15.4029 22.9292 15.9916 22.9292C16.5804 22.9292 17.0577 23.4066 17.0577 23.9953ZM23.4544 41.0531H34.1155V42.1192C34.1155 42.7079 33.6381 43.1853 33.0494 43.1853H24.5205C23.9317 43.1853 23.4544 42.7079 23.4544 42.1192V41.0531ZM2.13222 42.1192C2.13222 41.5304 2.60957 41.0531 3.19833 41.0531H21.3222V42.1192C21.3222 43.8855 22.7542 45.3175 24.5205 45.3175H33.0494C34.8156 45.3175 36.2477 43.8855 36.2477 42.1192V41.0531H54.3715C54.9603 41.0531 55.4376 41.5304 55.4376 42.1192V46.3836C55.4376 46.9724 54.9603 47.4497 54.3715 47.4497H3.19833C2.60957 47.4497 2.13222 46.9724 2.13222 46.3836V42.1192Z" fill="#2E2F42"/>
</svg>
